<svg width="10" height="20" viewBox="0 0 10 20" fill="none" xmlns="http://www.w3.org/2000/svg">
<path id="Vector" d="M8.99537 20C8.86391 20.0008 8.7336 19.9728 8.6119 19.9175C8.49021 19.8622 8.37952 19.7808 8.28619 19.6778L0.295456 10.791C0.201836 10.6877 0.127528 10.5648 0.0768181 10.4295C0.0261082 10.2941 0 10.1489 0 10.0023C0 9.85562 0.0261082 9.71042 0.0768181 9.57505C0.127528 9.43968 0.201836 9.31682 0.295456 9.21355L8.28619 0.326694C8.47428 0.117515 8.72937 0 8.99537 0C9.26136 0 9.51646 0.117515 9.70454 0.326694C9.89263 0.535873 9.99829 0.81958 9.99829 1.1154C9.99829 1.41123 9.89263 1.69493 9.70454 1.90411L2.413 10.0023L9.70454 18.1004C9.79816 18.2037 9.87247 18.3265 9.92318 18.4619C9.97389 18.5973 10 18.7425 10 18.8891C10 19.0358 9.97389 19.181 9.92318 19.3163C9.87247 19.4517 9.79816 19.5746 9.70454 19.6778C9.61121 19.7808 9.50053 19.8622 9.37883 19.9175C9.25713 19.9728 9.12682 20.0008 8.99537 20Z" fill="#0F6295"/>
</svg>
