<svg width="14" height="13" viewBox="0 0 14 13" fill="none" xmlns="http://www.w3.org/2000/svg">
<g id="briefcase-solid 1" clip-path="url(#clip0_1294_8226)">
<path id="Vector" d="M8.75 8.46429C8.75 8.68036 8.56719 8.85714 8.34375 8.85714H5.90625C5.68281 8.85714 5.5 8.68036 5.5 8.46429V7.28571H0.625V10.8214C0.625 11.45 1.19375 12 1.84375 12H12.4062C13.0562 12 13.625 11.45 13.625 10.8214V7.28571H8.75V8.46429ZM12.4062 3.35714H10.375V2.17857C10.375 1.55 9.80625 1 9.15625 1H5.09375C4.44375 1 3.875 1.55 3.875 2.17857V3.35714H1.84375C1.19375 3.35714 0.625 3.90714 0.625 4.53571V6.5H13.625V4.53571C13.625 3.90714 13.0562 3.35714 12.4062 3.35714ZM8.75 3.35714H5.5V2.57143H8.75V3.35714Z" fill="#0F6295"/>
</g>
<defs>
<clipPath id="clip0_1294_8226">
<rect width="12.7496" height="12.7496" fill="white" transform="translate(0.625)"/>
</clipPath>
</defs>
</svg>
