<svg width="13" height="13" viewBox="0 0 13 13" fill="none" xmlns="http://www.w3.org/2000/svg">
<g id="Frame">
<path id="Vector" d="M10.8335 3.25065H9.2085V2.16732C9.2085 1.56986 8.72262 1.08398 8.12516 1.08398H4.87516C4.2777 1.08398 3.79183 1.56986 3.79183 2.16732V3.25065H2.16683C1.56937 3.25065 1.0835 3.73653 1.0835 4.33398V5.95898H11.9168V4.33398C11.9168 3.73653 11.431 3.25065 10.8335 3.25065ZM4.87516 2.16732H8.12516V3.25065H4.87516V2.16732ZM7.5835 7.58398H5.41683V6.50065H1.0835V10.2923C1.0835 10.8898 1.56937 11.3757 2.16683 11.3757H10.8335C11.431 11.3757 11.9168 10.8898 11.9168 10.2923V6.50065H7.5835V7.58398Z" fill="#0F6295"/>
</g>
</svg>
