<svg width="29" height="29" viewBox="0 0 29 29" fill="none" xmlns="http://www.w3.org/2000/svg">
<path d="M24.1668 6.04232H20.5418V4.83398C20.5418 3.87257 20.1599 2.95054 19.4801 2.27072C18.8003 1.5909 17.8782 1.20898 16.9168 1.20898H12.0835C11.1221 1.20898 10.2001 1.5909 9.52023 2.27072C8.84041 2.95054 8.4585 3.87257 8.4585 4.83398V6.04232H4.8335C3.87209 6.04232 2.95005 6.42424 2.27023 7.10406C1.59041 7.78387 1.2085 8.70591 1.2085 9.66732V24.1673C1.2085 25.1287 1.59041 26.0508 2.27023 26.7306C2.95005 27.4104 3.87209 27.7923 4.8335 27.7923H24.1668C25.1282 27.7923 26.0503 27.4104 26.7301 26.7306C27.4099 26.0508 27.7918 25.1287 27.7918 24.1673V9.66732C27.7918 8.70591 27.4099 7.78387 26.7301 7.10406C26.0503 6.42424 25.1282 6.04232 24.1668 6.04232ZM10.8752 4.83398C10.8752 4.51351 11.0025 4.20617 11.2291 3.97956C11.4557 3.75296 11.763 3.62565 12.0835 3.62565H16.9168C17.2373 3.62565 17.5446 3.75296 17.7712 3.97956C17.9979 4.20617 18.1252 4.51351 18.1252 4.83398V6.04232H10.8752V4.83398ZM3.62516 9.66732C3.62516 9.34685 3.75247 9.0395 3.97908 8.8129C4.20568 8.58629 4.51303 8.45898 4.8335 8.45898H24.1668C24.4873 8.45898 24.7946 8.58629 25.0212 8.8129C25.2479 9.0395 25.3752 9.34685 25.3752 9.66732V13.2923C25.3752 13.6128 25.2479 13.9201 25.0212 14.1467C24.7946 14.3733 24.4873 14.5007 24.1668 14.5007H4.8335C4.51303 14.5007 4.20568 14.3733 3.97908 14.1467C3.75247 13.9201 3.62516 13.6128 3.62516 13.2923V9.66732ZM24.1668 25.3756H4.8335C4.51303 25.3756 4.20568 25.2483 3.97908 25.0217C3.75247 24.7951 3.62516 24.4878 3.62516 24.1673V16.6998C4.51933 17.014 5.00266 16.9173 7.25016 16.9173V18.1257C7.25016 18.4461 7.37747 18.7535 7.60408 18.9801C7.83068 19.2067 8.13803 19.334 8.4585 19.334C8.77897 19.334 9.08631 19.2067 9.31292 18.9801C9.53952 18.7535 9.66683 18.4461 9.66683 18.1257V16.9173H19.3335V18.1257C19.3335 18.4461 19.4608 18.7535 19.6874 18.9801C19.914 19.2067 20.2214 19.334 20.5418 19.334C20.8623 19.334 21.1696 19.2067 21.3962 18.9801C21.6229 18.7535 21.7502 18.4461 21.7502 18.1257V16.9173C24.2877 16.9173 24.5656 16.9898 25.3752 16.6998V24.1673C25.3752 24.4878 25.2479 24.7951 25.0212 25.0217C24.7946 25.2483 24.4873 25.3756 24.1668 25.3756Z" fill="#0F6295"/>
</svg>
