<svg width="26" height="26" viewBox="0 0 26 26" fill="none" xmlns="http://www.w3.org/2000/svg">
<g id="&#208;&#156;&#208;&#181;&#208;&#189;&#209;&#142; &#208;&#184;&#208;&#186;&#208;&#190;&#208;&#189;&#208;&#186;&#208;&#176;">
<path id="Vector" d="M3.5791 8.125H23.0791C23.9761 8.125 24.7041 7.397 24.7041 6.5C24.7041 5.603 23.9761 4.875 23.0791 4.875H3.5791C2.6821 4.875 1.9541 5.603 1.9541 6.5C1.9541 7.397 2.6821 8.125 3.5791 8.125ZM23.0791 11.375H3.5791C2.6821 11.375 1.9541 12.103 1.9541 13C1.9541 13.897 2.6821 14.625 3.5791 14.625H23.0791C23.9761 14.625 24.7041 13.897 24.7041 13C24.7041 12.103 23.9761 11.375 23.0791 11.375ZM23.0791 17.875H3.5791C2.6821 17.875 1.9541 18.603 1.9541 19.5C1.9541 20.397 2.6821 21.125 3.5791 21.125H23.0791C23.9761 21.125 24.7041 20.397 24.7041 19.5C24.7041 18.603 23.9761 17.875 23.0791 17.875Z" fill="white"/>
</g>
</svg>
