<svg width="13" height="13" viewBox="0 0 13 13" fill="none" xmlns="http://www.w3.org/2000/svg">
<g id="Frame">
<path id="Vector" d="M0 6.1375V11.118C0 11.452 0.272344 11.7332 0.621094 11.7508C1.76531 11.8094 4.22344 12.0461 5.625 12.9977V6.74687C4.25156 5.81641 1.87477 5.56563 0.699375 5.5C0.318516 5.47891 0 5.77187 0 6.1375ZM11.3016 5.5C10.1276 5.56675 7.75547 5.8157 6.40078 6.7443C6.37734 6.74687 6.375 6.74922 6.375 6.75391V13C7.78219 12.0534 10.2352 11.8103 11.3789 11.7513C11.7281 11.732 12 11.4508 12 11.118V6.1375C12 5.77187 11.6813 5.47891 11.3016 5.5ZM8.25 3.25C8.25 2.00781 7.24219 1 6 1C4.75781 1 3.75 2.00781 3.75 3.25C3.75 4.49219 4.75781 5.5 6 5.5C7.24219 5.5 8.25 4.49219 8.25 3.25Z" fill="#0F6295"/>
</g>
</svg>
