<svg width="14" height="11" viewBox="0 0 14 11" fill="none" xmlns="http://www.w3.org/2000/svg">
<path id="Vector" d="M1.71875 0.75C1.0459 0.75 0.5 1.3099 0.5 2C0.5 2.39323 0.680273 2.76302 0.9875 3L6.5125 7.25C6.80195 7.47135 7.19805 7.47135 7.4875 7.25L13.0125 3C13.3197 2.76302 13.5 2.39323 13.5 2C13.5 1.3099 12.9541 0.75 12.2812 0.75H1.71875ZM0.5 3.66667V9.08333C0.5 10.0026 1.22871 10.75 2.125 10.75H11.875C12.7713 10.75 13.5 10.0026 13.5 9.08333V3.66667L7.975 7.91667C7.39609 8.36198 6.60391 8.36198 6.025 7.91667L0.5 3.66667Z" fill="#0F6295"/>
</svg>
