<svg width="13" height="13" viewBox="0 0 13 13" fill="none" xmlns="http://www.w3.org/2000/svg">
<g id="Layer_1">
<g id="Group">
<path id="Vector" d="M4.875 4.875C4.875 3.95417 5.57917 3.25 6.5 3.25C7.42083 3.25 8.125 3.95417 8.125 4.875C8.125 5.79583 7.42083 6.5 6.5 6.5C5.57917 6.5 4.875 5.79583 4.875 4.875ZM6.5 7.58333C4.00833 7.58333 3.25 9.37083 3.25 9.37083V10.2917H9.75V9.37083C9.75 9.37083 8.99167 7.58333 6.5 7.58333Z" fill="#0F6295"/>
</g>
<g id="Group_2">
<g id="Group_3">
<path id="Vector_2" d="M10.0212 5.95833C10.769 5.95833 11.3753 5.35205 11.3753 4.60417C11.3753 3.85628 10.769 3.25 10.0212 3.25C9.27327 3.25 8.66699 3.85628 8.66699 4.60417C8.66699 5.35205 9.27327 5.95833 10.0212 5.95833Z" fill="#0F6295"/>
</g>
<g id="Group_4">
<path id="Vector_3" d="M10.0211 7.04102C9.37106 7.04102 8.88356 7.20352 8.50439 7.47435C9.75023 8.07018 10.2377 9.09935 10.2377 9.20768V9.26185H12.4586V8.55768C12.4586 8.50352 11.8627 7.04102 10.0211 7.04102Z" fill="#0F6295"/>
</g>
</g>
<g id="Group_5">
<g id="Group_6">
<path id="Vector_4" d="M10.0212 5.95833C10.769 5.95833 11.3753 5.35205 11.3753 4.60417C11.3753 3.85628 10.769 3.25 10.0212 3.25C9.27327 3.25 8.66699 3.85628 8.66699 4.60417C8.66699 5.35205 9.27327 5.95833 10.0212 5.95833Z" fill="#0F6295"/>
</g>
<g id="Group_7">
<path id="Vector_5" d="M10.0211 7.04102C9.37106 7.04102 8.88356 7.20352 8.50439 7.47435C9.75023 8.07018 10.2377 9.09935 10.2377 9.20768V9.26185H12.4586V8.55768C12.4586 8.50352 11.8627 7.04102 10.0211 7.04102Z" fill="#0F6295"/>
</g>
</g>
<g id="Group_8">
<g id="Group_9">
<path id="Vector_6" d="M2.97917 5.95833C3.72705 5.95833 4.33333 5.35205 4.33333 4.60417C4.33333 3.85628 3.72705 3.25 2.97917 3.25C2.23128 3.25 1.625 3.85628 1.625 4.60417C1.625 5.35205 2.23128 5.95833 2.97917 5.95833Z" fill="#0F6295"/>
</g>
<g id="Group_10">
<path id="Vector_7" d="M2.979 7.04102C3.629 7.04102 4.1165 7.20352 4.49567 7.47435C3.24984 8.07018 2.76234 9.09935 2.76234 9.20768V9.26185H0.541504V8.55768C0.541504 8.50352 1.13734 7.04102 2.979 7.04102Z" fill="#0F6295"/>
</g>
</g>
</g>
</svg>
