<svg width="18" height="15" viewBox="0 0 18 15" fill="none" xmlns="http://www.w3.org/2000/svg">
<path d="M8.70173 3.84785L2.9816 8.55672V13.6409C2.9816 13.7726 3.03389 13.8988 3.12697 13.9919C3.22005 14.085 3.34629 14.1373 3.47792 14.1373L6.95529 14.1279C7.08638 14.1271 7.21183 14.0745 7.30424 13.9815C7.39665 13.8885 7.44851 13.7627 7.44851 13.6316V10.663C7.44851 10.5314 7.5008 10.4051 7.59388 10.312C7.68696 10.219 7.8132 10.1667 7.94483 10.1667H9.93013C10.0618 10.1667 10.188 10.219 10.2811 10.312C10.3742 10.4051 10.4265 10.5314 10.4265 10.663V13.6285C10.426 13.694 10.4386 13.7588 10.4633 13.8194C10.4881 13.88 10.5246 13.9351 10.5707 13.9815C10.6168 14.0279 10.6717 14.0647 10.7321 14.0899C10.7925 14.115 10.8573 14.1279 10.9228 14.1279L14.397 14.1373C14.5287 14.1373 14.6549 14.085 14.748 13.9919C14.8411 13.8988 14.8934 13.7726 14.8934 13.6409V8.55361L9.17634 3.84785C9.10909 3.79372 9.02536 3.7642 8.93903 3.7642C8.85271 3.7642 8.76897 3.79372 8.70173 3.84785ZM17.7348 7.04913L15.1415 4.91184V0.615543C15.1415 0.516818 15.1023 0.422136 15.0325 0.352327C14.9627 0.282518 14.868 0.2433 14.7693 0.2433H13.0321C12.9334 0.2433 12.8387 0.282518 12.7689 0.352327C12.6991 0.422136 12.6599 0.516818 12.6599 0.615543V2.86761L9.8836 0.58142C9.61708 0.362101 9.28264 0.242187 8.93748 0.242188C8.59232 0.242187 8.25788 0.362101 7.99136 0.58142L0.137046 7.04913C0.0993523 7.08029 0.068167 7.11857 0.0452716 7.16178C0.0223762 7.20499 0.00821944 7.25229 0.00361027 7.30097C-0.000998899 7.34966 0.00402982 7.39877 0.0184091 7.44551C0.0327884 7.49225 0.0562364 7.5357 0.0874134 7.57338L0.878429 8.535C0.909616 8.57315 0.948064 8.60472 0.991546 8.62789C1.03503 8.65106 1.08268 8.66537 1.13173 8.66999C1.18079 8.67461 1.23027 8.66944 1.27731 8.65479C1.32435 8.64014 1.36802 8.61629 1.40577 8.58463L8.70173 2.57602C8.76897 2.52189 8.85271 2.49238 8.93903 2.49238C9.02536 2.49238 9.10909 2.52189 9.17634 2.57602L16.4723 8.58463C16.51 8.61581 16.5534 8.63926 16.6002 8.65364C16.6469 8.66802 16.696 8.67305 16.7447 8.66844C16.7934 8.66383 16.8407 8.64967 16.8839 8.62678C16.9271 8.60388 16.9654 8.5727 16.9965 8.535L17.7875 7.57338C17.8185 7.53551 17.8418 7.4919 17.8559 7.44505C17.87 7.39819 17.8748 7.34901 17.8699 7.30032C17.865 7.25163 17.8505 7.20438 17.8274 7.16128C17.8042 7.11818 17.7727 7.08007 17.7348 7.04913Z" fill="#0F6295"/>
</svg>
