<svg width="20" height="20" viewBox="0 0 20 20" fill="none" xmlns="http://www.w3.org/2000/svg">
<path d="M10 12C12.7614 12 15 9.31371 15 6C15 2.68629 12.7614 0 10 0C7.23858 0 5 2.68629 5 6C5 9.31371 7.23858 12 10 12Z" fill="#0F6295"/>
<path d="M19.7845 17.1959C18.8859 15.4554 17.1886 14.005 14.9921 13.1348C14.393 12.9414 13.6941 12.9414 13.1949 13.2315C12.1965 13.8116 11.1981 14.1017 10 14.1017C8.8019 14.1017 7.80348 13.8116 6.80506 13.2315C6.30585 13.0381 5.60696 12.9414 5.00791 13.2315C2.81139 14.1017 1.11408 15.5521 0.2155 17.2926C-0.483392 18.5496 0.614868 20 2.1125 20H17.8875C19.3851 20 20.4834 18.5496 19.7845 17.1959Z" fill="#0F6295"/>
</svg>
