<svg width="29" height="30" viewBox="0 0 29 30" fill="none" xmlns="http://www.w3.org/2000/svg">
<g clip-path="url(#clip0_1619_1360)">
<g filter="url(#filter0_d_1619_1360)">
<path d="M2.71964 14.8713C2.74504 12.5414 3.46079 10.2713 4.77638 8.34807C6.09196 6.42488 7.94829 4.935 10.1106 4.06682C12.273 3.19865 14.6442 2.99118 16.9244 3.47065C19.2047 3.95011 21.2915 5.09499 22.9211 6.76049C24.5507 8.42599 25.6498 10.5373 26.0794 12.8275C26.5091 15.1176 26.25 17.4838 25.3349 19.6267C24.4197 21.7695 22.8897 23.593 20.9383 24.8663C18.9869 26.1396 16.7017 26.8057 14.3718 26.7803C11.2474 26.7463 8.26447 25.4724 6.07927 23.2391C3.89408 21.0057 2.68558 17.9957 2.71964 14.8713ZM24.4684 15.1085C24.4898 13.1369 23.9262 11.2033 22.8488 9.55213C21.7713 7.90093 20.2285 6.60631 18.4152 5.83199C16.602 5.05767 14.5999 4.83841 12.6621 5.20196C10.7243 5.5655 8.93775 6.49551 7.52848 7.87439C6.11922 9.25326 5.15048 11.0191 4.74477 12.9485C4.33907 14.8779 4.51462 16.8844 5.24923 18.714C5.98384 20.5437 7.24451 22.1144 8.87183 23.2276C10.4991 24.3408 12.42 24.9464 14.3915 24.9679C17.0352 24.9968 19.5821 23.9742 21.4719 22.1252C23.3617 20.2762 24.4395 17.7522 24.4684 15.1085Z" fill="white"/>
</g>
<path d="M8.15689 14.9319C8.15951 14.6916 8.2575 14.4622 8.42929 14.2941C8.60109 14.126 8.83263 14.033 9.07297 14.0356L19.9473 14.1542C20.1877 14.1568 20.4171 14.2548 20.5852 14.4266C20.7533 14.5984 20.8463 14.8299 20.8436 15.0703C20.841 15.3106 20.743 15.5401 20.5712 15.7081C20.3994 15.8762 20.1679 15.9692 19.9276 15.9666L9.05321 15.848C8.81287 15.8454 8.58341 15.7474 8.41532 15.5756C8.24723 15.4038 8.15427 15.1723 8.15689 14.9319Z" fill="white"/>
<path d="M13.5348 20.4288L13.6533 9.55441C13.6559 9.31407 13.7539 9.08461 13.9257 8.91652C14.0975 8.74843 14.3291 8.65547 14.5694 8.65809C14.8097 8.66071 15.0392 8.7587 15.2073 8.93049C15.3754 9.10229 15.4683 9.33383 15.4657 9.57416L15.3472 20.4485C15.3445 20.6889 15.2465 20.9183 15.0748 21.0864C14.903 21.2545 14.6714 21.3475 14.4311 21.3448C14.1907 21.3422 13.9613 21.2442 13.7932 21.0724C13.6251 20.9006 13.5321 20.6691 13.5348 20.4288Z" fill="white"/>
</g>
<defs>
<filter id="filter0_d_1619_1360" x="0.11875" y="3.21875" width="28.7625" height="30.1625" filterUnits="userSpaceOnUse" color-interpolation-filters="sRGB">
<feFlood flood-opacity="0" result="BackgroundImageFix"/>
<feColorMatrix in="SourceAlpha" type="matrix" values="0 0 0 0 0 0 0 0 0 0 0 0 0 0 0 0 0 0 127 0" result="hardAlpha"/>
<feOffset dy="4"/>
<feGaussianBlur stdDeviation="1.3"/>
<feComposite in2="hardAlpha" operator="out"/>
<feColorMatrix type="matrix" values="0 0 0 0 0 0 0 0 0 0 0 0 0 0 0 0 0 0 0.01 0"/>
<feBlend mode="normal" in2="BackgroundImageFix" result="effect1_dropShadow_1619_1360"/>
<feBlend mode="normal" in="SourceGraphic" in2="effect1_dropShadow_1619_1360" result="shape"/>
</filter>
<clipPath id="clip0_1619_1360">
<rect width="29" height="29" fill="white" transform="translate(0 0.5)"/>
</clipPath>
</defs>
</svg>
