<svg width="14" height="15" viewBox="0 0 14 15" fill="none" xmlns="http://www.w3.org/2000/svg">
<path id="Vector" d="M0.673243 10.2412C0.164672 10.4518 -0.106019 11.0068 0.0388961 11.5373L0.695117 13.9434C0.826361 14.4192 1.25837 14.75 1.75054 14.75C8.51509 14.75 14 9.26509 14 2.50054C14 2.00837 13.6692 1.57636 13.1934 1.44512L10.7873 0.788897C10.2568 0.643981 9.70175 0.914673 9.49121 1.42324L8.39751 4.04813C8.21158 4.49381 8.34009 5.01059 8.71469 5.31409L10.0627 6.41873C9.15217 8.34364 7.59364 9.90217 5.66873 10.8127L4.56682 9.46469C4.26059 9.09009 3.74655 8.96158 3.30086 9.14751L0.675977 10.2412H0.673243Z" fill="#0F6295"/>
</svg>
