<svg width="21" height="19" viewBox="0 0 21 19" fill="none" xmlns="http://www.w3.org/2000/svg">
<g id="Social Icons">
<path id="Vector" d="M20.7908 5.70005C20.7908 5.70005 20.5857 4.39009 19.9541 3.81489C19.1543 3.05786 18.2602 3.05415 17.85 3.00962C14.9133 2.81665 10.5041 2.81665 10.5041 2.81665H10.4959C10.4959 2.81665 6.08672 2.81665 3.15 3.00962C2.73984 3.05415 1.8457 3.05786 1.0459 3.81489C0.414258 4.39009 0.213281 5.70005 0.213281 5.70005C0.213281 5.70005 0 7.24009 0 8.77642V10.2163C0 11.7526 0.20918 13.2926 0.20918 13.2926C0.20918 13.2926 0.414258 14.6026 1.0418 15.1778C1.8416 15.9348 2.8916 15.9088 3.35918 15.9905C5.04082 16.1352 10.5 16.1797 10.5 16.1797C10.5 16.1797 14.9133 16.1723 17.85 15.9831C18.2602 15.9385 19.1543 15.9348 19.9541 15.1778C20.5857 14.6026 20.7908 13.2926 20.7908 13.2926C20.7908 13.2926 21 11.7563 21 10.2163V8.77642C21 7.24009 20.7908 5.70005 20.7908 5.70005ZM8.33027 11.9641V6.62407L14.0027 9.30337L8.33027 11.9641Z" fill="white"/>
</g>
</svg>
